<?xml version="1.0" encoding="UTF-8"?>
<svg id="_Слой_1" data-name="Слой 1" xmlns="http://www.w3.org/2000/svg" viewBox="0 0 1940 1122">
  <defs>
    <style>
      .cls-1, .cls-2 {
        fill: #fff;
      }

      .cls-3, .cls-2 {
        stroke-width: 36px;
      }

      .cls-3, .cls-2, .cls-4 {
        stroke: #fff;
        stroke-linecap: round;
        stroke-linejoin: round;
      }

      .cls-3, .cls-4 {
        fill: none;
      }

      .cls-4 {
        stroke-width: 42px;
      }

      .cls-5 {
        fill: #a1d8de;
      }
    </style>
  </defs>
  <rect class="cls-5" width="1940" height="948"/>
  <path class="cls-5" d="m388.1,1070c-155.24-63.2-323.42-26.33-388.1,0v-124h1940v176c-23.28,0-104.96-14.9-245.43-74.5-175.6-74.5-456.44-6.5-563.7,22.5-107.25,29-548.73,79-742.78,0Z"/>
  <path class="cls-1" d="m1745.93,465.21c17.87,1,34.49,5.37,49.85,13.1,15.36,7.74,28.65,17.85,39.88,30.34,11.24,12.49,19.84,26.98,25.81,43.47,5.97,16.49,8.52,33.82,7.64,52-1.76,36.34-8.09,71.06-18.99,104.14-10.9,33.08-25.5,63.81-43.79,92.18-18.29,28.37-39.82,53.9-64.59,76.58-24.78,22.68-52,41.78-81.68,57.31-29.67,15.53-61.28,27.09-94.79,34.66-33.52,7.58-68.16,10.37-103.92,8.37-17.88-1-34.5-5.37-49.86-13.11-15.35-7.74-28.65-17.85-39.88-30.34-11.24-12.49-19.84-26.98-25.81-43.47-5.97-16.49-8.51-33.82-7.63-52,1.75-36.34,8.08-71.06,18.99-104.14,10.9-33.08,25.49-63.81,43.78-92.18,18.29-28.37,39.82-53.9,64.6-76.58,24.77-22.68,52-41.78,81.68-57.31s61.27-27.08,94.78-34.66c33.52-7.58,68.16-10.37,103.92-8.37Zm-1.6,32.91c-32.72-1.83-64.39.69-95,7.58-30.61,6.88-59.53,17.47-86.78,31.76-27.25,14.29-52.29,31.88-75.11,52.78-22.84,20.9-42.57,44.29-59.21,70.17-16.65,25.88-30.01,54.02-40.11,84.39-10.09,30.38-15.94,62.19-17.55,95.45-.5,10.29.53,20.4,3.09,30.34,2.57,9.94,6.6,19.19,12.1,27.75l118.66-108.36-19.97-22.52c-3.05-3.44-4.46-7.38-4.25-11.84.22-4.46,2.01-8.22,5.37-11.3,3.36-3.08,7.24-4.49,11.62-4.25,4.38.25,8.1,2.09,11.15,5.52l19.98,22.26,26.81-24.54-19.71-22.5c-3.05-3.44-4.46-7.38-4.25-11.84.21-4.46,2.01-8.22,5.37-11.3,3.36-3.08,7.24-4.49,11.62-4.25,4.38.25,8.1,2.09,11.15,5.52l19.96,22.52,27.08-24.79-19.96-22.52c-3.05-3.44-4.46-7.38-4.25-11.84.21-4.46,2-8.22,5.37-11.3,3.36-3.08,7.23-4.49,11.62-4.25,4.38.25,8.1,2.09,11.14,5.52l19.98,22.26,26.82-24.54-19.71-22.5c-3.05-3.44-4.46-7.38-4.25-11.84.21-4.46,2-8.23,5.36-11.3,3.37-3.08,7.24-4.49,11.62-4.25,4.39.25,8.11,2.09,11.15,5.52l19.97,22.52,118.41-108.63c-7.81-6.45-16.44-11.49-25.91-15.12-9.46-3.62-19.25-5.72-29.38-6.29Zm-281.39,446.31c32.72,1.83,64.39-.69,95-7.57,30.61-6.88,59.54-17.47,86.79-31.76,27.25-14.29,52.28-31.88,75.11-52.78,22.83-20.9,42.57-44.29,59.2-70.17,16.65-25.88,30.02-54.02,40.11-84.39,10.09-30.38,15.95-62.19,17.56-95.45.5-10.29-.54-20.4-3.1-30.34-2.56-9.94-6.6-19.19-12.1-27.75l-118.65,108.36,19.96,22.52c3.05,3.44,4.46,7.38,4.25,11.84-.21,4.46-2,8.23-5.37,11.3-3.36,3.08-7.23,4.49-11.62,4.25-2.36-.13-4.36-.67-6-1.63s-3.36-2.25-5.14-3.9l-19.98-22.26-26.82,24.54,19.72,22.5c3.04,3.44,4.46,7.38,4.24,11.84-.21,4.46-2,8.23-5.36,11.3-3.37,3.08-7.24,4.49-11.62,4.25-4.39-.25-8.11-2.09-11.15-5.52l-19.97-22.52-27.08,24.78,19.97,22.52c3.04,3.44,4.46,7.38,4.24,11.84-.21,4.46-2,8.22-5.36,11.3-3.36,3.08-7.24,4.49-11.62,4.25-2.37-.13-4.37-.67-6.01-1.63-1.65-.95-3.36-2.25-5.14-3.9l-19.98-22.26-26.81,24.54,19.71,22.5c3.05,3.44,4.46,7.38,4.24,11.84-.21,4.46-2,8.22-5.36,11.3-3.36,3.08-7.24,4.49-11.62,4.25-4.38-.25-8.1-2.09-11.15-5.52l-19.97-22.52-118.41,108.63c7.81,6.45,16.44,11.49,25.91,15.12,9.46,3.62,19.26,5.72,29.38,6.28Z"/>
  <path class="cls-4" d="m99.95,398.32l112.5,56.67,27.22-31.11m96.5,142.33l25.07-96.03-76.21-98.15,61.36-137.51m25.07-96.03c-1.66,6.37-.75,13.16,2.53,18.89,3.28,5.73,8.66,9.92,14.96,11.65,6.3,1.73,13,.86,18.63-2.41,5.63-3.28,9.73-8.7,11.39-15.06,1.66-6.37.75-13.16-2.53-18.89-3.28-5.73-8.66-9.92-14.96-11.65-6.3-1.73-13-.87-18.63,2.41-5.63,3.28-9.73,8.7-11.39,15.06Z"/>
  <path class="cls-3" d="m202.82,297.47l18.74-71.71,124.62,8.62,52.28,91.22,64.78,43.41"/>
  <path class="cls-2" d="m471.34,577.56c3.14.87,6.49.43,9.3-1.21s4.86-4.34,5.69-7.53c.83-3.17.38-6.57-1.26-9.44-1.64-2.86-4.32-4.95-7.47-5.81-3.14-.87-6.49-.43-9.3,1.19-2.81,1.64-4.86,4.34-5.69,7.53-.83,3.18-.38,6.57,1.26,9.44,1.64,2.86,4.32,4.95,7.47,5.82Z"/>
</svg>