<?xml version="1.0" encoding="UTF-8"?>
<svg id="_Слой_1" data-name=" Слой 1" xmlns="http://www.w3.org/2000/svg" xmlns:xlink="http://www.w3.org/1999/xlink" viewBox="0 0 84 84">
  <defs>
    <style>
      .cls-1 {
        fill: #fff;
      }

      .cls-2, .cls-3 {
        fill: none;
      }

      .cls-3 {
        clip-path: url(#clippath);
      }

      .cls-4 {
        fill: rgba(0, 50, 73, .9);
      }
    </style>
    <clipPath id="clippath">
      <path class="cls-2" d="m42,0h0c23.2,0,42,18.8,42,42h0c0,23.2-18.8,42-42,42h0C18.8,84,0,65.2,0,42h0C0,18.8,18.8,0,42,0Z"/>
    </clipPath>
  </defs>
  <g class="cls-3">
    <g>
      <circle class="cls-4" cx="42" cy="42" r="70"/>
      <path class="cls-1" d="m36.32,28.13v5.78h-4.32v7.07h4.32v21.01h8.88v-21.01h5.96s.56-3.39.83-7.1h-6.75v-4.84c0-.72.97-1.69,1.92-1.69h4.84v-7.36h-6.58c-9.32,0-9.1,7.08-9.1,8.13Z"/>
    </g>
  </g>
</svg>