<?xml version="1.0" encoding="UTF-8"?>
<svg id="_Слой_1" data-name="Слой 1" xmlns="http://www.w3.org/2000/svg" xmlns:xlink="http://www.w3.org/1999/xlink" viewBox="0 0 30 30">
  <defs>
    <style>
      .cls-1 {
        stroke: #fff;
        stroke-linecap: round;
        stroke-linejoin: round;
        stroke-width: 1.7px;
      }

      .cls-1, .cls-2, .cls-3 {
        fill: none;
      }

      .cls-4 {
        fill: #007ea7;
      }

      .cls-3 {
        clip-path: url(#clippath);
      }
    </style>
    <clipPath id="clippath">
      <path class="cls-2" d="m15,0h0c8.28,0,15,6.72,15,15h0c0,8.28-6.72,15-15,15h0C6.72,30,0,23.28,0,15h0C0,6.72,6.72,0,15,0Z"/>
    </clipPath>
  </defs>
  <g class="cls-3">
    <g>
      <circle class="cls-4" cx="15" cy="15" r="25"/>
      <path class="cls-1" d="m18.75,7.5h-7.5c-2.07,0-3.75,1.68-3.75,3.75v7.5c0,2.07,1.68,3.75,3.75,3.75h7.5c2.07,0,3.75-1.68,3.75-3.75v-7.5c0-2.07-1.68-3.75-3.75-3.75Z"/>
      <path class="cls-1" d="m19.12,10.88h0m-1.13,3.65c.09.62-.01,1.26-.3,1.82-.29.56-.75,1.01-1.31,1.3-.56.28-1.2.38-1.83.28-.62-.1-1.2-.39-1.64-.84-.45-.45-.74-1.02-.84-1.64-.1-.62,0-1.26.28-1.83.28-.56.74-1.02,1.3-1.31.56-.29,1.2-.4,1.82-.3.64.09,1.23.39,1.68.85.46.46.75,1.04.85,1.68Z"/>
    </g>
  </g>
</svg>