<?xml version="1.0" encoding="UTF-8"?>
<svg id="_Слой_1" data-name="Слой 1" xmlns="http://www.w3.org/2000/svg" xmlns:xlink="http://www.w3.org/1999/xlink" viewBox="0 0 42 42">
  <defs>
    <style>
      .cls-1 {
        stroke: #fff;
        stroke-linecap: round;
        stroke-linejoin: round;
        stroke-width: 1.7px;
      }

      .cls-1, .cls-2, .cls-3 {
        fill: none;
      }

      .cls-3 {
        clip-path: url(#clippath);
      }

      .cls-4 {
        fill: rgba(0, 50, 73, .9);
      }
    </style>
    <clipPath id="clippath">
      <path class="cls-2" d="m21,0h0c11.6,0,21,9.4,21,21h0c0,11.6-9.4,21-21,21h0C9.4,42,0,32.6,0,21h0C0,9.4,9.4,0,21,0Z"/>
    </clipPath>
  </defs>
  <g class="cls-3">
    <g>
      <circle class="cls-4" cx="21" cy="21" r="35"/>
      <path class="cls-1" d="m26.75,10h-10.5c-2.9,0-5.25,2.35-5.25,5.25v10.5c0,2.9,2.35,5.25,5.25,5.25h10.5c2.9,0,5.25-2.35,5.25-5.25v-10.5c0-2.9-2.35-5.25-5.25-5.25Z"/>
      <path class="cls-1" d="m27.27,14.73h.01m-1.59,5.11c.13.87-.02,1.77-.43,2.55-.41.78-1.05,1.42-1.84,1.82-.79.4-1.68.54-2.56.39-.87-.14-1.68-.55-2.3-1.18-.62-.62-1.04-1.43-1.18-2.3-.14-.87,0-1.77.4-2.56.4-.79,1.03-1.43,1.82-1.84.78-.41,1.68-.56,2.55-.43.89.13,1.72.55,2.35,1.18.64.64,1.05,1.46,1.18,2.35Z"/>
    </g>
  </g>
</svg>