<?xml version="1.0" encoding="UTF-8"?>
<svg id="_Слой_1" data-name="Слой 1" xmlns="http://www.w3.org/2000/svg" viewBox="0 0 30 30">
  <defs>
    <style>
      .cls-1 {
        fill: #fff;
      }

      .cls-2 {
        fill: #007ea7;
      }
    </style>
  </defs>
  <circle class="cls-2" cx="15" cy="15" r="15"/>
  <path class="cls-1" d="m10.9,9.75c.05.67.16,1.32.34,1.94l-.9.9c-.31-.9-.5-1.85-.57-2.84h1.13Zm7.39,9.01c.64.18,1.29.29,1.95.34v1.12c-.99-.07-1.94-.26-2.85-.56l.9-.89Zm-6.67-10.51h-2.62c-.41,0-.75.34-.75.75,0,7.04,5.71,12.75,12.75,12.75.41,0,.75-.34.75-.75v-2.62c0-.41-.34-.75-.75-.75-.93,0-1.84-.15-2.68-.43-.07-.03-.15-.04-.23-.04-.19,0-.38.08-.53.22l-1.65,1.65c-2.13-1.09-3.86-2.82-4.94-4.94l1.65-1.65c.21-.21.27-.5.19-.77-.28-.86-.43-1.77-.43-2.68,0-.41-.34-.75-.75-.75Z"/>
</svg>