<?xml version="1.0" encoding="UTF-8"?>
<svg id="_Слой_1" data-name="Слой 1" xmlns="http://www.w3.org/2000/svg" viewBox="0 0 200 200">
  <defs>
    <style>
      .cls-1 {
        fill: #ccdbdc;
      }

      .cls-2 {
        fill: #003249;
      }
    </style>
  </defs>
  <rect class="cls-1" width="200" height="200"/>
  <path class="cls-2" d="m42.14,92.2l-5.59,11.14h-2.78l-5.62-11.14h3.14l3.07,6.48c.14.3.26.63.36.98.11.35.22.69.34,1.01h.19c.1-.32.2-.66.31-1.01s.23-.68.36-.98l3.07-6.48h3.14Zm-5.5,9.24v7.32h-3v-7.32h3Zm13.35-9.55c1.28,0,2.36.14,3.24.43.88.27,1.58.74,2.11,1.39.53.66.91,1.54,1.15,2.64.26,1.1.38,2.48.38,4.13s-.13,3.01-.38,4.13c-.24,1.1-.62,1.98-1.15,2.64s-1.23,1.13-2.11,1.42c-.88.27-1.96.41-3.24.41s-2.31-.14-3.19-.41c-.88-.29-1.59-.76-2.14-1.42-.54-.66-.94-1.54-1.18-2.64-.24-1.12-.36-2.5-.36-4.13s.12-3.02.36-4.13c.24-1.1.63-1.98,1.18-2.64.54-.66,1.26-1.12,2.14-1.39.88-.29,1.94-.43,3.19-.43Zm0,2.45c-.94,0-1.69.19-2.23.58-.53.37-.9,1-1.13,1.9-.22.88-.34,2.1-.34,3.67s.11,2.8.34,3.7c.22.88.6,1.51,1.13,1.9.54.37,1.29.55,2.23.55s1.7-.18,2.23-.55c.54-.38.93-1.02,1.15-1.9.22-.9.34-2.13.34-3.7s-.11-2.79-.34-3.67c-.22-.9-.61-1.53-1.15-1.9-.53-.38-1.27-.58-2.23-.58Zm22.67-2.14v10.08c0,1.65-.2,2.97-.6,3.96-.4.99-1.06,1.71-1.97,2.16-.91.45-2.14.67-3.67.67s-2.88-.22-3.84-.67c-.96-.45-1.66-1.17-2.09-2.16-.42-.99-.62-2.31-.62-3.96v-10.08h3v10.08c0,1.09.1,1.95.31,2.59.22.64.58,1.1,1.08,1.37.5.26,1.17.38,2.02.38s1.51-.13,1.99-.38c.5-.27.85-.73,1.06-1.37.22-.64.34-1.5.34-2.59v-10.08h3Zm9.67-.22c1.38,0,2.49.14,3.34.43.86.29,1.49.78,1.87,1.49.4.69.6,1.66.6,2.93,0,.83-.1,1.54-.31,2.14-.19.58-.52,1.04-.98,1.39-.45.34-1.06.55-1.82.65v.12c.27.06.55.19.84.38.3.18.58.43.82.77.26.34.45.77.58,1.3l1.51,5.18h-3.17l-1.37-5.11c-.18-.58-.42-.98-.72-1.2-.3-.24-.72-.36-1.25-.36h-2.66c-.74-.02-1.35-.03-1.85-.05-.48-.02-.9-.02-1.27-.02l.07-2.28h5.71c.72-.02,1.29-.1,1.7-.24.42-.16.71-.43.89-.82.18-.4.26-.96.26-1.68s-.09-1.25-.26-1.63c-.18-.38-.47-.65-.89-.79-.42-.16-.98-.24-1.7-.24-1.41,0-2.62,0-3.62.02-1.01.02-1.7.03-2.06.05l-.34-2.21c.64-.06,1.24-.11,1.8-.14.58-.03,1.2-.05,1.87-.05.67-.02,1.48-.02,2.42-.02Zm-3.14.22v16.56h-2.95v-16.56h2.95Zm23.6-.22c1.46,0,2.6.16,3.43.48.83.3,1.42.84,1.78,1.61.37.75.55,1.82.55,3.22s-.18,2.47-.53,3.24c-.34.77-.9,1.3-1.7,1.61-.78.3-1.83.46-3.14.46-.72,0-1.42-.02-2.09-.07-.66-.05-1.27-.11-1.85-.19-.56-.08-1.04-.16-1.44-.24-.4-.1-.68-.18-.84-.24l.07-1.61h5.71c.7-.02,1.26-.1,1.66-.26.42-.16.7-.45.86-.86.18-.43.26-1.04.26-1.82s-.09-1.38-.26-1.8c-.16-.43-.45-.73-.86-.89-.4-.18-.95-.26-1.66-.26-1.41,0-2.62,0-3.62.02-1.01.02-1.7.04-2.06.07l-.34-2.23c.64-.06,1.24-.11,1.8-.14.58-.03,1.19-.05,1.85-.05.67-.02,1.48-.02,2.42-.02Zm-3.07.22v16.56h-3v-16.56h3Zm14.55,0v16.56h-3v-16.56h3Zm6.91,6.55v2.35h-7.1v-2.35h7.1Zm2.74-6.55v16.56h-3v-16.56h3Zm9.98-.31c1.28,0,2.36.14,3.24.43.88.27,1.58.74,2.11,1.39.53.66.91,1.54,1.15,2.64.26,1.1.38,2.48.38,4.13s-.13,3.01-.38,4.13c-.24,1.1-.62,1.98-1.15,2.64s-1.23,1.13-2.11,1.42c-.88.27-1.96.41-3.24.41s-2.31-.14-3.19-.41c-.88-.29-1.59-.76-2.14-1.42-.54-.66-.94-1.54-1.18-2.64-.24-1.12-.36-2.5-.36-4.13s.12-3.02.36-4.13c.24-1.1.63-1.98,1.18-2.64.54-.66,1.26-1.12,2.14-1.39.88-.29,1.94-.43,3.19-.43Zm0,2.45c-.94,0-1.69.19-2.23.58-.53.37-.9,1-1.13,1.9-.22.88-.34,2.1-.34,3.67s.11,2.8.34,3.7c.22.88.6,1.51,1.13,1.9.54.37,1.29.55,2.23.55s1.7-.18,2.23-.55c.54-.38.93-1.02,1.15-1.9.22-.9.34-2.13.34-3.7s-.11-2.79-.34-3.67c-.22-.9-.61-1.53-1.15-1.9-.53-.38-1.27-.58-2.23-.58Zm16.51-2.14v16.56h-3v-16.56h3Zm5.14,0v2.45h-13.27v-2.45h13.27Zm8.35-.31c1.28,0,2.36.14,3.24.43.88.27,1.58.74,2.11,1.39.53.66.91,1.54,1.15,2.64.26,1.1.38,2.48.38,4.13s-.13,3.01-.38,4.13c-.24,1.1-.62,1.98-1.15,2.64s-1.23,1.13-2.11,1.42c-.88.27-1.96.41-3.24.41s-2.31-.14-3.19-.41c-.88-.29-1.59-.76-2.14-1.42-.54-.66-.94-1.54-1.18-2.64-.24-1.12-.36-2.5-.36-4.13s.12-3.02.36-4.13c.24-1.1.63-1.98,1.18-2.64.54-.66,1.26-1.12,2.14-1.39.88-.29,1.94-.43,3.19-.43Zm0,2.45c-.94,0-1.69.19-2.23.58-.53.37-.9,1-1.13,1.9-.22.88-.34,2.1-.34,3.67s.11,2.8.34,3.7c.22.88.6,1.51,1.13,1.9.54.37,1.29.55,2.23.55s1.7-.18,2.23-.55c.54-.38.93-1.02,1.15-1.9.22-.9.34-2.13.34-3.7s-.11-2.79-.34-3.67c-.22-.9-.61-1.53-1.15-1.9-.53-.38-1.27-.58-2.23-.58Z"/>
</svg>