<?xml version="1.0" encoding="UTF-8"?>
<svg id="_Слой_1" data-name=" Слой 1" xmlns="http://www.w3.org/2000/svg" xmlns:xlink="http://www.w3.org/1999/xlink" viewBox="0 0 522 279">
  <defs>
    <style>
      .cls-1 {
        fill: #fff;
      }

      .cls-2 {
        fill: #d8d8d8;
      }

      .cls-3 {
        fill: #282828;
      }

      .cls-4 {
        fill: rgba(132, 149, 151, .8);
      }

      .cls-5, .cls-6 {
        fill: none;
      }

      .cls-6 {
        clip-path: url(#clippath);
      }

      .cls-7 {
        fill: red;
      }
    </style>
    <clipPath id="clippath">
      <rect class="cls-5" x="446" y="254" width="66" height="15"/>
    </clipPath>
  </defs>
  <path class="cls-4" d="m0,10C0,4.48,4.48,0,10,0h502c5.52,0,10,4.48,10,10v259c0,5.52-4.48,10-10,10H10c-5.52,0-10-4.48-10-10V10Z"/>
  <path class="cls-2" d="m157.56,96.08c4.85,0,8.67.53,11.44,1.6,2.77,1.01,4.75,2.8,5.92,5.36,1.23,2.51,1.84,6.08,1.84,10.72s-.59,8.24-1.76,10.8c-1.12,2.56-3.01,4.35-5.68,5.36-2.61,1.01-6.11,1.52-10.48,1.52-2.4,0-4.72-.08-6.96-.24-2.19-.16-4.24-.37-6.16-.64-1.87-.27-3.47-.53-4.8-.8-1.33-.32-2.27-.59-2.8-.8l.24-5.36h19.04c2.35-.05,4.19-.35,5.52-.88,1.39-.53,2.35-1.49,2.88-2.88.59-1.44.88-3.47.88-6.08s-.29-4.61-.88-6c-.53-1.44-1.49-2.43-2.88-2.96-1.33-.59-3.17-.88-5.52-.88-4.69,0-8.72.03-12.08.08s-5.65.13-6.88.24l-1.12-7.44c2.13-.21,4.13-.37,6-.48,1.92-.11,3.97-.16,6.16-.16,2.24-.05,4.93-.08,8.08-.08Zm-10.24.72v55.2h-10v-55.2h10Zm58.84-.72c4.59,0,8.29.48,11.12,1.44,2.88.96,4.96,2.61,6.24,4.96,1.33,2.29,2,5.55,2,9.76,0,2.77-.35,5.15-1.04,7.12-.64,1.92-1.73,3.47-3.28,4.64-1.49,1.12-3.52,1.84-6.08,2.16v.4c.91.21,1.84.64,2.8,1.28,1.01.59,1.92,1.44,2.72,2.56.85,1.12,1.49,2.56,1.92,4.32l5.04,17.28h-10.56l-4.56-17.04c-.59-1.92-1.39-3.25-2.4-4-1.01-.8-2.4-1.2-4.16-1.2h-8.88c-2.45-.05-4.51-.11-6.16-.16-1.6-.05-3.01-.08-4.24-.08l.24-7.6h19.04c2.4-.05,4.29-.32,5.68-.8,1.39-.53,2.37-1.44,2.96-2.72.59-1.33.88-3.2.88-5.6s-.29-4.16-.88-5.44c-.59-1.28-1.57-2.16-2.96-2.64-1.39-.53-3.28-.8-5.68-.8-4.69,0-8.72.03-12.08.08s-5.65.11-6.88.16l-1.12-7.36c2.13-.21,4.13-.37,6-.48,1.92-.11,4-.16,6.24-.16,2.24-.05,4.93-.08,8.08-.08Zm-10.48.72v55.2h-9.84v-55.2h9.84Zm61.82-1.04c4.27,0,7.87.48,10.8,1.44,2.93.91,5.28,2.45,7.04,4.64,1.76,2.19,3.04,5.12,3.84,8.8.85,3.68,1.28,8.27,1.28,13.76s-.43,10.03-1.28,13.76c-.8,3.68-2.08,6.61-3.84,8.8-1.76,2.19-4.11,3.76-7.04,4.72-2.93.91-6.53,1.36-10.8,1.36s-7.71-.45-10.64-1.36c-2.93-.96-5.31-2.53-7.12-4.72-1.81-2.19-3.12-5.12-3.92-8.8-.8-3.73-1.2-8.32-1.2-13.76s.4-10.08,1.2-13.76,2.11-6.61,3.92-8.8c1.81-2.19,4.19-3.73,7.12-4.64,2.93-.96,6.48-1.44,10.64-1.44Zm0,8.16c-3.15,0-5.63.64-7.44,1.92-1.76,1.23-3.01,3.33-3.76,6.32-.75,2.93-1.12,7.01-1.12,12.24s.37,9.33,1.12,12.32c.75,2.93,2,5.04,3.76,6.32,1.81,1.23,4.29,1.84,7.44,1.84s5.68-.61,7.44-1.84c1.81-1.28,3.09-3.39,3.84-6.32.75-2.99,1.12-7.09,1.12-12.32s-.37-9.31-1.12-12.24c-.75-2.99-2.03-5.09-3.84-6.32-1.76-1.28-4.24-1.92-7.44-1.92Zm62.54,48.08v6.48h-35.36v-6.48h35.36Zm16.19-55.2v55.2h-10v-55.2h10Zm34.9,0v55.2h-10v-55.2h10Zm17.12,0v8.16h-44.24v-8.16h44.24Zm-165.37,75.08c2.13,0,3.93.24,5.4.72,1.47.45,2.64,1.23,3.52,2.32s1.52,2.56,1.92,4.4c.43,1.84.64,4.13.64,6.88s-.21,5.01-.64,6.88c-.4,1.84-1.04,3.31-1.92,4.4s-2.05,1.88-3.52,2.36c-1.47.45-3.27.68-5.4.68s-3.85-.23-5.32-.68c-1.47-.48-2.65-1.27-3.56-2.36s-1.56-2.56-1.96-4.4c-.4-1.87-.6-4.16-.6-6.88s.2-5.04.6-6.88c.4-1.84,1.05-3.31,1.96-4.4s2.09-1.87,3.56-2.32c1.47-.48,3.24-.72,5.32-.72Zm0,4.08c-1.57,0-2.81.32-3.72.96-.88.61-1.51,1.67-1.88,3.16-.37,1.47-.56,3.51-.56,6.12s.19,4.67.56,6.16c.37,1.47,1,2.52,1.88,3.16.91.61,2.15.92,3.72.92s2.84-.31,3.72-.92c.91-.64,1.55-1.69,1.92-3.16.37-1.49.56-3.55.56-6.16s-.19-4.65-.56-6.12c-.37-1.49-1.01-2.55-1.92-3.16-.88-.64-2.12-.96-3.72-.96Zm29.9,4.4v19.64h-4.8v-19.64h4.8Zm9.08,7.56v3.4h-9.32v-3.4h9.32Zm4.4-7.56v19.64h-4.76v-19.64h4.76Zm15.43-.48c1.57,0,2.89.21,3.96.64,1.07.4,1.88,1.09,2.44,2.08s.84,2.35.84,4.08v13.32h-3.84l-.68-4.24-.32-.56v-8.56c-.03-1.04-.28-1.79-.76-2.24-.48-.48-1.39-.72-2.72-.72-1.04,0-2.33.04-3.88.12-1.52.08-3.05.19-4.6.32l-.44-3.32c.93-.19,1.99-.35,3.16-.48,1.2-.13,2.39-.24,3.56-.32,1.2-.08,2.29-.12,3.28-.12Zm5.16,8.04l-.04,3h-8.96c-.83.03-1.41.24-1.76.64-.35.4-.52.95-.52,1.64v1.08c0,.8.21,1.41.64,1.84.45.4,1.12.6,2,.6.72,0,1.52-.15,2.4-.44s1.75-.72,2.6-1.28c.88-.56,1.67-1.23,2.36-2v2.52c-.24.4-.61.88-1.12,1.44-.51.53-1.13,1.07-1.88,1.6-.72.53-1.56.97-2.52,1.32s-2.01.52-3.16.52-2.23-.2-3.16-.6c-.93-.43-1.67-1.04-2.2-1.84-.51-.83-.76-1.84-.76-3.04v-2.08c0-1.55.51-2.75,1.52-3.6,1.01-.88,2.43-1.32,4.24-1.32h10.32Zm16.3-8.04c.67,0,1.4.03,2.2.08.8.05,1.6.16,2.4.32.83.16,1.59.39,2.28.68l-.56,3.04c-.99-.05-1.97-.09-2.96-.12-.96-.03-1.81-.04-2.56-.04-1.31,0-2.36.19-3.16.56-.8.35-1.37.99-1.72,1.92-.35.91-.52,2.19-.52,3.84s.17,2.95.52,3.88c.35.91.92,1.55,1.72,1.92.8.37,1.85.56,3.16.56.43,0,.97-.01,1.64-.04.67-.03,1.37-.07,2.12-.12.77-.05,1.51-.12,2.2-.2l.44,3.12c-1.01.43-2.16.73-3.44.92-1.25.19-2.52.28-3.8.28-2.35,0-4.23-.33-5.64-1-1.41-.67-2.44-1.75-3.08-3.24-.61-1.52-.92-3.55-.92-6.08s.31-4.55.92-6.04c.64-1.52,1.67-2.6,3.08-3.24,1.44-.67,3.33-1,5.68-1Z"/>
  <circle class="cls-3" cx="261" cy="140" r="32"/>
  <path class="cls-1" d="m250.77,154.77c.34.14.73.23,1.12.23.6,0,1.21-.23,1.72-.6l21.32-12.44.22-.23c.56-.6.86-1.34.86-2.17s-.3-1.62-.86-2.17l-.22-.23-21.32-12.54c-.77-.65-1.89-.79-2.84-.37-1.08.46-1.77,1.62-1.77,2.87v24.79c0,1.25.69,2.41,1.77,2.87Z"/>
  <g class="cls-6">
    <g>
      <path class="cls-7" d="m466.61,256.32c-.12-.45-.36-.86-.68-1.19-.33-.33-.74-.56-1.18-.69-1.64-.45-8.22-.45-8.22-.45,0,0-6.58.01-8.22.46-.45.12-.85.36-1.18.69-.33.33-.56.74-.68,1.18-.49,2.92-.69,7.36.01,10.16.12.45.36.86.68,1.18.33.33.74.57,1.18.69,1.64.45,8.22.45,8.22.45,0,0,6.58,0,8.22-.45.45-.12.85-.36,1.18-.69.33-.33.56-.74.68-1.18.52-2.92.68-7.36-.01-10.17"/>
      <path class="cls-1" d="m454.43,264.58l5.46-3.17-5.46-3.17v6.35Z"/>
      <path class="cls-3" d="m509.32,258.3c.72,0,1.26.14,1.64.39.38.26.65.66.81,1.22.16.56.23,1.32.23,2.29v1.59h-3.47v.49l.05,1.34c.04.3.11.52.22.65.11.14.28.2.51.2.31,0,.53-.12.64-.37.12-.24.18-.65.19-1.21l1.8.11c.01.08.01.19.01.32,0,.86-.23,1.49-.7,1.91-.47.42-1.12.64-1.97.64-1.03,0-1.74-.33-2.15-.96-.4-.64-.62-1.64-.62-2.98v-1.64c.05-2.3.45-3.99,2.83-4Zm-24.99.18v6.79c0,.41.04.7.14.88.19.38.69.28.96.1.16-.11.28-.25.36-.42v-7.35h2.07v9.26h-1.62l-.18-1.14h-.04c-.45.85-1.11,1.29-1.99,1.29-1.35,0-1.68-.98-1.76-1.97v-.07c-.02-.15-.02-.3-.02-.45v-6.92h2.08Zm10.67,0v6.79c0,.41.04.7.14.88.19.38.69.28.96.1.16-.11.28-.25.36-.42v-7.35h2.07v9.26h-1.62l-.18-1.14h-.04c-.45.85-1.11,1.29-1.99,1.29-1.35,0-1.68-.98-1.76-1.97v-.07c-.02-.15-.02-.3-.02-.45v-6.92h2.08Zm-16.67-.18c.68,0,1.23.14,1.64.42.41.28.72.72.91,1.32.19.6.28,1.4.28,2.39v1.34c0,.99-.1,1.78-.28,2.37-.19.6-.49,1.03-.91,1.32-.42.27-.99.42-1.69.42-.73.01-1.3-.14-1.72-.41-.42-.29-.72-.72-.89-1.32-.18-.6-.26-1.38-.26-2.37v-1.34c0-.99.1-1.8.3-2.4.2-.61.51-1.04.95-1.32.43-.27.99-.42,1.68-.42m23.44-3.72v4.88h.01c.19-.35.43-.64.77-.85.32-.21.69-.33,1.07-.32.5,0,.88.14,1.16.39.28.27.49.69.61,1.27.12.57.18,1.35.19,2.33v1.56c0,1.37-.18,2.39-.5,3.04-.34.65-.85.98-1.55.98-.39,0-.74-.09-1.07-.27-.29-.17-.52-.41-.69-.7l-.03-.05h-.04l-.22.88h-1.72v-13.14h2Zm-8.27.48v1.68h-2.05v11h-2.03v-11h-2.07v-1.68h6.15Zm-22.29,0h0c.02.09.29,1.31.59,2.73l.02.11.04.17.02.11v.06s.04.11.04.11v.06s.04.12.04.12l.03.17c.2.98.4,1.97.51,2.68h.05c.11-.63.27-1.45.44-2.27l.05-.22c.02-.11.04-.22.07-.33l.04-.17c.23-1.1.47-2.2.72-3.29v-.02s.01-.03.01-.03h2.07l-2.39,8.56v4.11h-2.04v-4.09h-.01l-2.37-8.57h2.07Zm7.08,4.68c-.28,0-.47.15-.6.46-.12.31-.17.79-.17,1.45v2.89c0,.68.05,1.18.16,1.48.11.3.31.45.61.45s.49-.15.61-.45c.12-.3.18-.8.18-1.48v-2.89c0-.66-.05-1.15-.18-1.45-.12-.31-.32-.46-.61-.46Zm23.84.27c-.17.15-.28.34-.35.58v.05s-.01,5.26-.01,5.26c.17.29.4.48.82.49.22,0,.39-.08.53-.24.14-.16.23-.43.28-.81.05-.36.08-.87.08-1.51v-1.29c0-.73-.03-1.29-.07-1.68-.05-.39-.12-.68-.24-.84-.24-.34-.74-.33-1.04,0Zm7.15-.31c-.23.01-.39.08-.49.2-.11.14-.17.34-.22.64-.04.29-.05,1.31-.05,1.36v.67h1.51v-.59h0c0,.22,0-.11-.02-.51v-.05c0-.35-.02-.74-.04-.87-.04-.31-.11-.53-.22-.65-.11-.12-.27-.19-.49-.19"/>
    </g>
  </g>
</svg>